#tb 0: 1/25
0,          0,          0,        1,  6144000, 0xcd32ef33
0,          1,          1,        1,  6144000, 0x58ce681d
0,          2,          2,        1,  6144000, 0x77a732b6
0,          3,          3,        1,  6144000, 0xa95418d0
0,          4,          4,        1,  6144000, 0xa1593606
0,          5,          5,        1,  6144000, 0x0d5429bc
0,          6,          6,        1,  6144000, 0xe7cd205c
0,          7,          7,        1,  6144000, 0x52c30ff4
0,          8,          8,        1,  6144000, 0xf0a0f686
0,          9,          9,        1,  6144000, 0xa6371d86
0,         10,         10,        1,  6144000, 0x18bf1478
0,         11,         11,        1,  6144000, 0xb84c6322
0,         12,         12,        1,  6144000, 0x12f35f80
0,         13,         13,        1,  6144000, 0xa9009e83
0,         14,         14,        1,  6144000, 0x08568380
0,         15,         15,        1,  6144000, 0xb01e98e8
0,         16,         16,        1,  6144000, 0x0796ee90
0,         17,         17,        1,  6144000, 0x3bb7cbef
0,         18,         18,        1,  6144000, 0x7c3d6929
0,         19,         19,        1,  6144000, 0x62c0e56c
0,         20,         20,        1,  6144000, 0xd05907f7
0,         21,         21,        1,  6144000, 0x9aa33b33
0,         22,         22,        1,  6144000, 0xc47a0195
0,         23,         23,        1,  6144000, 0xa5a5db13
0,         24,         24,        1,  6144000, 0x54fda44b
0,         25,         25,        1,  6144000, 0x7695be2f
0,         26,         26,        1,  6144000, 0x247228e1
0,         27,         27,        1,  6144000, 0xec38b2f7
0,         28,         28,        1,  6144000, 0x223b098d
0,         29,         29,        1,  6144000, 0xdd13f4bf
0,         30,         30,        1,  6144000, 0x42651b46
0,         31,         31,        1,  6144000, 0xc0b2ac9a
0,         32,         32,        1,  6144000, 0x574908ee
0,         33,         33,        1,  6144000, 0x070f0d88
0,         34,         34,        1,  6144000, 0xc68ee679
0,         35,         35,        1,  6144000, 0x4d571c82
0,         36,         36,        1,  6144000, 0xec7f28cb
0,         37,         37,        1,  6144000, 0x07ca3ccd
0,         38,         38,        1,  6144000, 0xa5161fd7
0,         39,         39,        1,  6144000, 0xb0908b25
0,         40,         40,        1,  6144000, 0x4fa56c5e
0,         41,         41,        1,  6144000, 0x1ad84207
0,         42,         42,        1,  6144000, 0xc862a32b
0,         43,         43,        1,  6144000, 0x341b9b0a
0,         44,         44,        1,  6144000, 0xa940cdab
0,         45,         45,        1,  6144000, 0x57521b2d
0,         46,         46,        1,  6144000, 0x31969dee
0,         47,         47,        1,  6144000, 0x7a09e240
0,         48,         48,        1,  6144000, 0x14e6c360
0,         49,         49,        1,  6144000, 0x0dfd6085
0,         50,         50,        1,  6144000, 0xdf231a1e
0,         51,         51,        1,  6144000, 0x6d1e9ce1
0,         52,         52,        1,  6144000, 0xc6c2fb26
0,         53,         53,        1,  6144000, 0xd4bc5e3e
0,         54,         54,        1,  6144000, 0xa4a56b9e
0,         55,         55,        1,  6144000, 0x8ba6349f
0,         56,         56,        1,  6144000, 0x0683757f
0,         57,         57,        1,  6144000, 0xe3840d8b
0,         58,         58,        1,  6144000, 0x2fdf2ae6
0,         59,         59,        1,  6144000, 0xea877e27
